<?xml version="1.0" encoding="UTF-8" standalone="no"?>
<!-- Generator: Adobe Illustrator 19.2.1, SVG Export Plug-In . SVG Version: 6.00 Build 0)  -->

<svg
   version="1.1"
   id="layer"
   x="0px"
   y="0px"
   viewBox="0 0 248152.64 248282.5"
   xml:space="preserve"
   sodipodi:docname="new-york-public-library-logo-vector.svg"
   inkscape:export-filename="new-york-public-library-logo-vector.png"
   inkscape:export-xdpi="240"
   inkscape:export-ydpi="240"
   width="248152.64"
   height="248282.5"
   xmlns:inkscape="http://www.inkscape.org/namespaces/inkscape"
   xmlns:sodipodi="http://sodipodi.sourceforge.net/DTD/sodipodi-0.dtd"
   xmlns="http://www.w3.org/2000/svg"
   xmlns:svg="http://www.w3.org/2000/svg"><defs
   id="defs81" /><sodipodi:namedview
   id="namedview79"
   pagecolor="#ffffff"
   bordercolor="#666666"
   borderopacity="1.0"
   inkscape:showpageshadow="2"
   inkscape:pageopacity="0.0"
   inkscape:pagecheckerboard="0"
   inkscape:deskcolor="#d1d1d1"
   showgrid="false" />
<style
   type="text/css"
   id="style2">
	.st0{fill:#FFFFFF;}
</style>

<g
   id="g76"
   transform="translate(-87810.221,-90908.692)">
	<path
   class="st0"
   d="m 173.8,332.8 c -12.9,-6.3 -29.7,-9.5 -42,-16.3 -9.7,-5.4 -17.1,-14.2 -27.5,-19 -10.6,-4.9 -21.5,-8.9 -32.7,-11.9 -21.6,-5.3 -39.8,1.6 -46,6.6 -14.1,10.8 -20.9,28.7 -17.4,46.1 1.1,8.3 4.2,16.3 8.8,23.3 18.2,25.7 52.3,34.1 79.4,50.3 0.7,0.6 1.8,0.5 2.5,-0.2 0,0 0.1,-0.1 0.1,-0.1 4.5,-6.7 8.2,-12 15.9,-15.2 7.8,-3.2 20,-2.1 30.5,-1.6 10.9,0.5 22.6,-0.5 26.6,-6.1 4.7,-6.7 4.4,-20.2 -2.8,-24.4 -3.9,-2.2 -9.6,-2.3 -13.8,-4.3 -3.2,-1.6 -5.8,-4.4 -7.1,-7.8 -1.9,-3.5 -2.2,-7.7 -0.9,-11.4 1.7,-3 6,-2.2 9.4,-1.4 6.8,1.6 18.1,3.2 24.7,0.3 1.8,-1.1 -5.1,-5.7 -7.7,-6.9 z M 105.7,329 c -0.6,3 -2.4,8.9 -5.4,9.3 -3,0.4 -5.1,-2.8 -7.2,-4 -4.3,-2 -8.8,-3.6 -13.4,-4.9 -4.1,-1.3 -9.6,-3 -11.2,-6.9 -2.4,-5.8 3.3,-8.5 7.4,-9.8 3.8,-1.2 7.8,-1.8 11.8,-1.9 7.4,-0.4 14.5,0.7 17,5.4 1.5,4.1 1.8,8.6 1,12.8 z"
   id="path52" />
	<path
   class="st0"
   d="m -99.5,350.9 c 0.1,-1.7 0.8,-3.3 1.9,-4.5 17.4,-20 41.1,-33.6 67.1,-38.7 5.2,-0.7 9,-0.4 9.8,1.7 1.5,3.7 -1.5,5.8 -5.2,7.9 -63.4,37.9 -58.9,94.2 -59.5,117.3 0.2,9.4 -6.6,11.1 -8.3,6.7 -10.2,-29.1 -12.2,-60.3 -5.8,-90.4 z"
   id="path54" />
	<path
   class="st0"
   d="m -56.6,267.9 c 1,-1.3 2.5,-2.2 4.1,-2.6 22.2,-5.4 45.4,-3.4 66.4,5.6 4,1.7 5.7,4.2 3.1,5.9 -6.7,4 -12.9,8.5 -18.8,13.6 -1.8,1.2 -4,1.6 -6.2,1.2 -20.6,-2.7 -31.3,-4.3 -62.3,7.4 -4.8,2 -9,-0.7 -6.8,-4.5 5.8,-9.4 12.7,-18.4 20.5,-26.6 z"
   id="path56" />
	<path
   class="st0"
   d="m -16.5,243.6 c -5.3,-0.6 -5.4,-4.5 -3.2,-6 7.7,-5.1 16,-9.4 24.6,-12.7 2.1,-1 4.5,-1.4 6.9,-1.2 7,0.7 18.5,5.4 31.7,14.8 15.9,11.3 30,32.9 20.6,31.1 -3.4,-0.7 -6.9,-1.2 -10.4,-1.5 -7.2,-0.6 -11.9,0.1 -15.1,-0.2 C 37.2,267.6 36,267 35,266 21.7,254 6.2,246.4 -16.5,243.6 Z"
   id="path58" />
	<path
   class="st0"
   d="m 238.6,431.7 c -1.4,4.5 -3.1,10.1 -6.8,7.5 -11.2,-8.2 -23.4,-15 -36.3,-20.1 -0.8,-0.2 -0.7,-1.3 -0.4,-1.9 1,-2.3 1.6,-4.7 1.9,-7.1 0.7,-2.3 1.9,-4.4 3.5,-6.3 3.6,-7.1 5.8,-14.9 6.6,-22.8 0.6,-6.1 0.3,-12.2 -1,-18.1 -1,-2.6 -1.8,-5.3 -2.2,-8 0,-2.6 1.2,-5.2 1.5,-8.2 0.7,-8.7 -10.3,-16 -16.3,-18.8 -13.6,-6.4 -28.1,-12.1 -42.9,-19.8 -8.3,-4.4 -15,-14 -21.7,-19.2 -6.7,-5.2 -28.4,-13.8 -37.1,-16.1 -1.5,-0.2 -2.7,-1.4 -3,-3 -4.5,-20.1 -16,-37.9 -32.4,-50.3 -6.1,-4.7 0.7,-7.4 9.1,-7.8 132.1,-4.5 208,116.9 177.5,220 z"
   id="path60" />
	<path
   class="st0"
   d="m 185,373.3 c -0.1,-0.7 -0.4,-2.9 -0.4,-3.4 0.8,-1.6 2.1,-2.9 3.6,-3.7 1.6,-1.3 3.3,-2.5 5.1,-3.6 0.5,-0.3 0.8,0.4 0.9,0.5 4.9,7.4 3,25.6 -0.5,34.3 -0.4,0.9 -1.2,1.2 -1.5,0.6 -1.6,-3.8 -4.2,-7 -7.5,-9.4 -0.4,-0.4 -0.6,-1 -0.6,-1.5 1.2,-4.5 1.5,-9.1 0.9,-13.8 z"
   id="path62" />
	<path
   class="st0"
   d="m 124.8,418.3 c 0.7,-2.6 2.3,-4.8 4.6,-6.3 4.4,-2.8 11.8,-2.9 18.9,-3.4 6.5,0 13,-1.1 19.1,-3.1 3,-1.4 5.9,-5.2 10.5,-3.3 2,1 3.4,2.8 4,4.9 0.9,2.4 1.2,4.9 1,7.4 -0.7,8.5 -7.6,12.7 -8.8,20.6 0,1.3 -0.4,2.6 -1,3.7 -5.3,5.4 -15.7,4.2 -25.2,3.3 -3.1,0 -6.1,-0.6 -9,-1.5 -1.7,-1 -3.2,-2.2 -4.5,-3.6 -2.7,-2.6 -5.3,-5.4 -7.8,-8.3 -1.5,-1.2 -2.7,-2.8 -3.5,-4.5 0.4,-2 0.9,-4 1.7,-5.9 z"
   id="path64" />
	<path
   class="st0"
   d="m -40.5,518.6 c -2.9,-2.4 -5.2,-5.3 -6.9,-8.6 -16.2,-25.8 -25.2,-117.3 -4.4,-148.4 6.6,-10.9 13.6,-5.9 11.3,2.5 -4,18.9 -1.5,29.4 7.6,49.9 14.4,30.4 58.9,72.7 70.7,88 20.2,26.3 26.9,45.4 26.8,50.6 -0.1,4 -0.9,6.5 -7.8,5.9 -35.7,-2.8 -69.7,-16.8 -97.3,-39.9 z"
   id="path66" />
	<path
   class="st0"
   d="m -19.6,395.2 c -8.2,-19.5 -7.9,-41.7 1.1,-60.9 2.5,-4.7 4.9,-7.7 8.1,-6.9 3.4,1 4.2,4.5 4.7,11 3.5,54.3 36.4,72.6 77.6,91.8 32.6,16.6 69.6,35.7 100.6,81.8 4.7,6.7 5.4,10.7 0.1,14.5 -18.3,13.3 -39.1,22.7 -61.2,27.8 -3.8,0.9 -7.7,0.2 -11,-8.4 C 65.6,456.1 7.1,460.2 -19.6,395.2 Z"
   id="path68" />
	<path
   class="st0"
   d="m 196.3,505.6 c -5.3,5.3 -8.3,1.1 -10,-2.3 -6.5,-15.2 -15.4,-29.4 -26.4,-41.8 -1.1,-1 -1.2,-2.7 -0.2,-3.8 0.7,-0.8 1.7,-1.1 2.7,-0.8 3.6,0.4 7.2,-0.1 10.5,-1.7 5,-3 8.4,-8 9.6,-13.6 1.5,-5.2 1.5,-6.7 4.7,-7.1 1.1,0 2.1,0.1 3.1,0.4 4.1,1.6 7.8,3.8 11.1,6.6 8.3,6.7 15.5,14.6 21.5,23.4 0.9,2 0.6,4.3 -0.7,6.1 -7.1,12.6 -15.8,24.2 -25.9,34.6 z"
   id="path70" />
	<path
   d="m 70.6,194.7 c -105.1,0.4 -190.1,85.9 -189.7,191 0.4,105.1 85.9,190.1 191,189.7 C 176.7,575 261.5,489.9 261.5,385 261.8,280.2 177.2,195 72.4,194.6 c -0.6,0.1 -1.2,0.1 -1.8,0.1 z M -40.5,518.6 c -2.9,-2.4 -5.2,-5.3 -6.9,-8.6 -16.2,-25.8 -25.2,-117.3 -4.4,-148.4 6.6,-10.9 13.6,-5.9 11.3,2.5 -4,18.9 -1.5,29.4 7.6,49.9 14.4,30.4 58.9,72.7 70.7,88 20.2,26.3 26.9,45.4 26.8,50.6 -0.1,4 -0.9,6.5 -7.8,5.9 -35.7,-2.9 -69.7,-16.8 -97.3,-39.9 z m 279.1,-86.9 c -1.4,4.5 -3.1,10.1 -6.8,7.5 -11.2,-8.2 -23.4,-15 -36.3,-20.1 -0.8,-0.2 -0.7,-1.3 -0.4,-1.9 1,-2.3 1.6,-4.7 1.9,-7.1 0.7,-2.3 1.9,-4.4 3.5,-6.3 3.6,-7.1 5.8,-14.9 6.6,-22.8 0.6,-6.1 0.3,-12.2 -1,-18.1 -1,-2.6 -1.8,-5.3 -2.2,-8 0,-2.6 1.2,-5.2 1.5,-8.2 0.7,-8.7 -10.3,-16 -16.3,-18.8 -13.6,-6.4 -28.1,-12.1 -42.9,-19.8 -8.3,-4.4 -15,-14 -21.7,-19.2 -6.7,-5.2 -28.4,-13.8 -37.1,-16.1 -1.5,-0.2 -2.7,-1.4 -3,-3 -4.5,-20.1 -16,-37.9 -32.4,-50.3 -6.1,-4.7 0.7,-7.4 9.1,-7.8 132.1,-4.6 208,116.9 177.5,220 z M 185,373.3 c -0.1,-0.7 -0.4,-2.9 -0.4,-3.4 0.8,-1.6 2.1,-2.9 3.6,-3.7 1.6,-1.3 3.3,-2.5 5.1,-3.6 0.5,-0.3 0.8,0.4 0.9,0.5 4.9,7.4 3,25.6 -0.5,34.3 -0.4,0.9 -1.2,1.2 -1.5,0.6 -1.6,-3.8 -4.2,-7 -7.5,-9.4 -0.4,-0.4 -0.6,-1 -0.6,-1.5 1.2,-4.5 1.5,-9.2 0.9,-13.8 z M 25.6,292.1 c 6.3,-5 24.4,-11.9 46,-6.6 11.2,3.1 22.2,7 32.7,11.9 10.4,4.8 17.8,13.6 27.5,19 12.2,6.8 29,10 42,16.3 2.6,1.3 9.5,5.9 7.6,6.9 -6.5,2.9 -17.9,1.2 -24.7,-0.3 -3.4,-0.8 -7.7,-1.7 -9.4,1.4 -1.3,3.8 -1,7.9 0.9,11.4 1.4,3.4 3.9,6.1 7.1,7.8 4.2,1.9 10,2 13.8,4.3 7.2,4.1 7.5,17.7 2.8,24.4 -3.9,5.6 -15.7,6.6 -26.6,6.1 -10.5,-0.5 -22.7,-1.6 -30.5,1.6 -7.6,3.2 -11.3,8.6 -15.9,15.2 -0.5,0.8 -1.6,1 -2.4,0.4 0,0 -0.1,-0.1 -0.1,-0.1 -27,-16.2 -61.1,-24.6 -79.4,-50.3 -4.7,-7 -7.7,-14.9 -8.8,-23.3 -3.5,-17.5 3.3,-35.4 17.4,-46.1 z m -42.1,-48.5 c -5.3,-0.6 -5.4,-4.5 -3.2,-6 7.7,-5.1 16,-9.4 24.6,-12.7 2.1,-1 4.5,-1.4 6.9,-1.2 7,0.7 18.5,5.4 31.7,14.8 15.9,11.3 30,32.9 20.6,31.1 -3.4,-0.7 -6.9,-1.2 -10.4,-1.5 -7.2,-0.6 -11.9,0.1 -15.1,-0.2 C 37.2,267.6 36,267 35,266 21.7,253.9 6.2,246.3 -16.5,243.6 Z m 141.3,174.6 c 0.7,-2.6 2.3,-4.8 4.6,-6.3 4.4,-2.8 11.8,-2.9 18.9,-3.4 6.5,0 13,-1.1 19.1,-3.1 3,-1.4 5.9,-5.2 10.5,-3.3 2,1 3.4,2.8 4,4.9 0.9,2.4 1.2,4.9 1,7.4 -0.7,8.5 -7.6,12.7 -8.8,20.6 0,1.3 -0.4,2.6 -1,3.7 -5.3,5.4 -15.7,4.2 -25.2,3.3 -3.1,0 -6.1,-0.6 -9,-1.5 -1.7,-1 -3.2,-2.2 -4.5,-3.6 -2.7,-2.6 -5.3,-5.4 -7.8,-8.3 -1.5,-1.2 -2.7,-2.8 -3.5,-4.5 0.4,-2 0.9,-4 1.7,-5.9 z M -56.6,267.9 c 1,-1.3 2.5,-2.2 4.1,-2.6 22.2,-5.4 45.4,-3.4 66.4,5.6 4,1.7 5.7,4.2 3.1,5.9 -6.7,4 -12.9,8.5 -18.8,13.6 -1.8,1.2 -4,1.6 -6.2,1.2 -20.6,-2.7 -31.3,-4.3 -62.3,7.4 -4.8,2 -9,-0.7 -6.8,-4.5 5.8,-9.5 12.7,-18.5 20.5,-26.6 z m -42.8,83 c 0.1,-1.7 0.8,-3.3 1.9,-4.5 17.4,-20 41.1,-33.6 67.1,-38.7 5.2,-0.7 9,-0.4 9.8,1.7 1.5,3.7 -1.5,5.8 -5.2,7.9 -63.4,37.9 -58.9,94.2 -59.5,117.3 0.2,9.4 -6.6,11.1 -8.3,6.7 -10.3,-29.1 -12.3,-60.3 -5.8,-90.4 z m 79.9,44.3 c -8.2,-19.5 -7.9,-41.7 1.1,-60.9 2.5,-4.7 4.9,-7.7 8.1,-6.9 3.4,1 4.2,4.5 4.7,11 3.5,54.3 36.4,72.6 77.6,91.8 32.6,16.6 69.6,35.7 100.6,81.8 4.7,6.7 5.4,10.7 0.1,14.5 -18.3,13.3 -39.1,22.7 -61.2,27.8 -3.8,0.9 -7.7,0.2 -11,-8.4 C 65.6,456.1 7.1,460.1 -19.5,395.2 Z m 215.8,110.4 c -5.3,5.3 -8.3,1.1 -10,-2.3 -6.5,-15.2 -15.4,-29.4 -26.4,-41.8 -1.1,-1 -1.2,-2.7 -0.2,-3.8 0.7,-0.8 1.7,-1.1 2.7,-0.8 3.6,0.4 7.2,-0.1 10.5,-1.7 5,-3 8.4,-8 9.6,-13.6 1.5,-5.2 1.5,-6.7 4.7,-7.1 1.1,0 2.1,0.1 3.1,0.4 4.1,1.6 7.8,3.8 11.1,6.6 8.3,6.7 15.5,14.6 21.5,23.4 0.9,2 0.6,4.3 -0.7,6.1 -7.1,12.6 -15.8,24.2 -25.9,34.6 z"
   id="path72" />
	<path
   d="m 79.7,329.4 c 4.6,1.2 9.1,2.9 13.4,4.9 2.1,1.2 4.3,4.4 7.2,4 3,-0.4 4.8,-6.2 5.4,-9.3 0.9,-4.3 0.5,-8.7 -1.1,-12.8 -2.5,-4.7 -9.6,-5.7 -17,-5.4 -4,0.1 -7.9,0.7 -11.8,1.9 -4.1,1.3 -9.8,4 -7.4,9.8 1.7,3.9 7.2,5.6 11.3,6.9 z"
   id="path74" />
</g>
</svg>
